<svg version="1.1" id="Layer_1" xmlns="http://www.w3.org/2000/svg" xmlns:xlink="http://www.w3.org/1999/xlink" x="0px" y="0px"
	 width="100%" viewBox="0 0 500 500" enable-background="new 0 0 500 500" xml:space="preserve">
<path fill="#1C2221" opacity="1.000000" stroke="none" 
	d="
M1.000000,142.000000 
	C1.000000,94.678360 1.000000,47.856720 1.000000,1.017540 
	C167.613358,1.017540 334.226715,1.017540 500.920044,1.017540 
	C500.920044,167.571716 500.920044,334.143463 500.920044,500.857605 
	C334.333405,500.857605 167.666733,500.857605 1.000000,500.857605 
	C1.000000,381.439819 1.000000,261.969910 1.000000,142.000000 
M79.500000,34.971466 
	C60.077065,34.971466 40.654129,34.971466 21.255608,34.971466 
	C21.255608,178.741257 21.255608,321.838409 21.255608,464.975159 
	C174.880615,464.975159 328.245880,464.975159 481.660370,464.975159 
	C481.660370,321.515015 481.660370,178.438095 481.660370,34.971466 
	C347.753784,34.971466 214.126892,34.971466 79.500000,34.971466 
z"/>
<path fill="#00E6FC" opacity="1.000000" stroke="none" 
	d="
M80.000000,34.971466 
	C214.126892,34.971466 347.753784,34.971466 481.660370,34.971466 
	C481.660370,178.438095 481.660370,321.515015 481.660370,464.975159 
	C328.245880,464.975159 174.880615,464.975159 21.255608,464.975159 
	C21.255608,321.838409 21.255608,178.741257 21.255608,34.971466 
	C40.654129,34.971466 60.077065,34.971466 80.000000,34.971466 
M29.005089,156.500000 
	C29.005089,256.880249 29.005089,357.260468 29.005089,457.533508 
	C177.750626,457.533508 325.654236,457.533508 473.650940,457.533508 
	C473.650940,319.202576 473.650940,181.165390 473.650940,43.209076 
	C325.301941,43.209076 177.273956,43.209076 29.005091,43.209076 
	C29.005091,80.883339 29.005091,118.191673 29.005089,156.500000 
z"/>
<path fill="#1C2120" opacity="1.000000" stroke="none" 
	d="
M29.005089,156.000000 
	C29.005091,118.191673 29.005091,80.883339 29.005091,43.209076 
	C177.273956,43.209076 325.301941,43.209076 473.650940,43.209076 
	C473.650940,181.165390 473.650940,319.202576 473.650940,457.533508 
	C325.654236,457.533508 177.750626,457.533508 29.005089,457.533508 
	C29.005089,357.260468 29.005089,256.880249 29.005089,156.000000 
M238.529160,176.162064 
	C234.781021,176.162064 231.032883,176.162064 226.918396,176.162064 
	C226.918396,206.888626 226.918396,236.807693 226.918396,266.778259 
	C195.442596,266.778259 164.352097,266.778259 132.699738,266.778259 
	C132.699738,236.522415 132.699738,206.481979 132.699738,176.382904 
	C116.199097,176.382904 100.262024,176.382904 84.070732,176.382904 
	C84.070732,248.299698 84.070732,319.995575 84.070732,391.697144 
	C100.423820,391.697144 116.491249,391.697144 132.952988,391.697144 
	C132.952988,362.807983 132.952988,334.220184 132.952988,305.403381 
	C164.427048,305.403381 195.503296,305.403381 227.145798,305.403381 
	C227.145798,334.294708 227.145798,363.005310 227.145798,391.642548 
	C243.768265,391.642548 259.822174,391.642548 275.704468,391.642548 
	C275.704468,319.695435 275.704468,248.107407 275.704468,176.162064 
	C263.449463,176.162064 251.484436,176.162064 238.529160,176.162064 
M340.796509,398.001190 
	C341.962372,398.009918 343.128357,398.034088 344.294067,398.024994 
	C357.518250,397.922058 369.287659,389.778046 374.004150,377.472443 
	C378.802643,364.952972 375.450775,350.756775 365.588867,341.830841 
	C355.802704,332.973541 340.850250,330.852509 329.314331,336.685181 
	C316.016235,343.408844 309.752594,356.113983 311.807373,371.526855 
	C313.247467,382.329224 323.187714,396.003540 340.796509,398.001190 
M408.500000,84.865402 
	C415.829956,84.865402 423.159882,84.869568 430.489838,84.864273 
	C438.199341,84.858696 441.926636,82.424660 441.923523,77.411041 
	C441.920563,72.656456 438.387482,70.433693 430.741791,70.432243 
	C396.091125,70.425674 361.440430,70.428795 326.789764,70.431870 
	C325.624146,70.431969 324.452881,70.402374 323.293915,70.500587 
	C319.174164,70.849701 316.283234,72.684448 315.980774,77.152161 
	C315.716675,81.053413 318.593658,84.114388 323.046661,84.755905 
	C324.518127,84.967888 326.038757,84.861725 327.536926,84.861992 
	C354.191284,84.866707 380.845642,84.865395 408.500000,84.865402 
z"/>
<path fill="#FEFEFE" opacity="1.000000" stroke="none" 
	d="
M239.024292,176.162064 
	C251.484436,176.162064 263.449463,176.162064 275.704468,176.162064 
	C275.704468,248.107407 275.704468,319.695435 275.704468,391.642548 
	C259.822174,391.642548 243.768265,391.642548 227.145798,391.642548 
	C227.145798,363.005310 227.145798,334.294708 227.145798,305.403381 
	C195.503296,305.403381 164.427048,305.403381 132.952988,305.403381 
	C132.952988,334.220184 132.952988,362.807983 132.952988,391.697144 
	C116.491249,391.697144 100.423820,391.697144 84.070732,391.697144 
	C84.070732,319.995575 84.070732,248.299698 84.070732,176.382904 
	C100.262024,176.382904 116.199097,176.382904 132.699738,176.382904 
	C132.699738,206.481979 132.699738,236.522415 132.699738,266.778259 
	C164.352097,266.778259 195.442596,266.778259 226.918396,266.778259 
	C226.918396,236.807693 226.918396,206.888626 226.918396,176.162064 
	C231.032883,176.162064 234.781021,176.162064 239.024292,176.162064 
z"/>
<path fill="#FDFDFD" opacity="1.000000" stroke="none" 
	d="
M340.346436,397.978516 
	C323.187714,396.003540 313.247467,382.329224 311.807373,371.526855 
	C309.752594,356.113983 316.016235,343.408844 329.314331,336.685181 
	C340.850250,330.852509 355.802704,332.973541 365.588867,341.830841 
	C375.450775,350.756775 378.802643,364.952972 374.004150,377.472443 
	C369.287659,389.778046 357.518250,397.922058 344.294067,398.024994 
	C343.128357,398.034088 341.962372,398.009918 340.346436,397.978516 
z"/>
<path fill="#01DEF4" opacity="1.000000" stroke="none" 
	d="
M408.000000,84.865395 
	C380.845642,84.865395 354.191284,84.866707 327.536926,84.861992 
	C326.038757,84.861725 324.518127,84.967888 323.046661,84.755905 
	C318.593658,84.114388 315.716675,81.053413 315.980774,77.152161 
	C316.283234,72.684448 319.174164,70.849701 323.293915,70.500587 
	C324.452881,70.402374 325.624146,70.431969 326.789764,70.431870 
	C361.440430,70.428795 396.091125,70.425674 430.741791,70.432243 
	C438.387482,70.433693 441.920563,72.656456 441.923523,77.411041 
	C441.926636,82.424660 438.199341,84.858696 430.489838,84.864273 
	C423.159882,84.869568 415.829956,84.865402 408.000000,84.865395 
z"/>
</svg>